<svg xmlns="http://www.w3.org/2000/svg" viewBox="0 0 200 200" width="200" height="200">
  <defs>
    <linearGradient id="g2" x1="0%" y1="0%" x2="100%" y2="100%">
      <stop offset="0%" style="stop-color:#c4222e"/>
      <stop offset="100%" style="stop-color:#F0A73E"/>
    </linearGradient>
  </defs>
  <!-- Globe -->
  <circle cx="100" cy="85" r="65" fill="none" stroke="url(#g2)" stroke-width="3.5"/>
  <ellipse cx="100" cy="85" rx="35" ry="65" fill="none" stroke="url(#g2)" stroke-width="2"/>
  <line x1="35" y1="85" x2="165" y2="85" stroke="url(#g2)" stroke-width="2"/>
  <path d="M45 50 Q100 42 155 50" fill="none" stroke="url(#g2)" stroke-width="1.5"/>
  <path d="M45 120 Q100 128 155 120" fill="none" stroke="url(#g2)" stroke-width="1.5"/>
  <!-- Football -->
  <circle cx="100" cy="170" r="22" fill="none" stroke="url(#g2)" stroke-width="3"/>
  <path d="M100 148 L100 155 M88 156 L94 162 M112 156 L106 162 M85 170 L93 170 M115 170 L107 170 M90 183 L95 177 M110 183 L105 177" stroke="url(#g2)" stroke-width="2" stroke-linecap="round"/>
</svg>
