<svg xmlns="http://www.w3.org/2000/svg" viewBox="0 0 200 200" width="200" height="200">
  <path d="M95 30 L105 28 L115 32 L120 28 L130 30 L135 35 L140 33 L145 38 L142 45 L148 48 L155 45 L160 50 L158 58 L150 62 L145 60 L140 65 L135 62 L130 68 L125 72 L120 70 L115 75 L118 82 L125 85 L130 90 L128 98 L120 102 L115 108 L108 112 L100 115 L95 120 L88 118 L82 122 L75 125 L70 130 L65 128 L60 132 L55 128 L50 122 L48 115 L52 108 L55 100 L50 95 L45 90 L48 82 L52 75 L55 70 L60 65 L58 58 L62 52 L68 48 L72 42 L78 38 L85 35 L90 32Z" fill="#3B82F6" opacity="0.9"/>
</svg>
