<svg xmlns="http://www.w3.org/2000/svg" viewBox="0 0 200 200" width="200" height="200">
  <path d="M30 25 L45 20 L60 22 L75 18 L90 22 L105 20 L115 25 L125 22 L135 28 L145 25 L155 30 L165 28 L172 35 L178 42 L180 50 L178 58 L175 65 L170 72 L165 78 L160 85 L155 90 L150 95 L145 100 L140 108 L135 115 L128 120 L120 125 L112 128 L105 132 L98 135 L90 138 L82 140 L75 138 L68 135 L62 130 L55 125 L50 118 L45 110 L42 102 L40 95 L38 88 L35 80 L32 72 L30 65 L28 55 L30 45 L32 35Z" fill="#A855F7" opacity="0.9"/>
</svg>
