<svg xmlns="http://www.w3.org/2000/svg" viewBox="0 0 200 200" width="200" height="200">
  <path d="M90 12 L100 10 L110 14 L118 12 L125 18 L130 25 L135 32 L138 40 L140 50 L138 60 L135 68 L132 75 L130 82 L128 90 L125 98 L122 105 L120 112 L118 120 L115 128 L112 135 L108 142 L105 148 L100 155 L95 162 L90 168 L85 172 L82 178 L85 182 L90 185 L88 190 L82 188 L78 182 L75 175 L72 168 L70 160 L68 152 L65 145 L62 138 L60 130 L58 122 L60 115 L62 108 L65 100 L68 92 L70 85 L72 78 L75 70 L78 62 L80 55 L78 48 L75 40 L78 32 L82 25 L85 18Z" fill="#F59E0B" opacity="0.9"/>
</svg>
