<svg xmlns="http://www.w3.org/2000/svg" viewBox="0 0 200 200" width="200" height="200">
  <path d="M105 15 L115 18 L120 25 L118 35 L122 42 L125 50 L128 60 L130 70 L128 80 L125 88 L120 95 L118 105 L115 112 L110 120 L105 130 L100 140 L95 148 L90 155 L85 160 L80 165 L75 168 L72 172 L78 178 L82 182 L80 188 L75 185 L70 178 L65 170 L62 162 L60 155 L58 148 L60 140 L62 132 L65 125 L68 118 L70 110 L72 102 L75 95 L78 88 L80 80 L78 72 L75 65 L78 58 L82 50 L85 42 L88 35 L92 28 L98 20Z" fill="#22C55E" opacity="0.9"/>
</svg>
