<svg xmlns="http://www.w3.org/2000/svg" viewBox="0 0 200 200" width="200" height="200">
  <path d="M60 10 L70 8 L80 12 L90 10 L100 15 L110 12 L120 18 L130 15 L140 20 L145 28 L148 35 L150 45 L148 55 L145 62 L140 68 L138 75 L135 82 L130 88 L125 95 L120 100 L115 108 L110 115 L105 120 L100 125 L95 128 L90 132 L85 138 L80 145 L75 150 L70 155 L65 160 L60 158 L58 152 L55 145 L52 138 L50 130 L48 122 L45 115 L42 108 L40 100 L38 92 L40 85 L42 78 L45 70 L48 62 L50 55 L52 48 L55 40 L58 32 L55 25 L58 18Z" fill="#EF4444" opacity="0.9"/>
</svg>
