<svg xmlns="http://www.w3.org/2000/svg" viewBox="0 0 100 100" fill="none">
  <!-- Äusserer Ring -->
  <circle cx="50" cy="50" r="46" stroke="#d4af37" stroke-width="2" fill="#1a2a5e"/>
  <circle cx="50" cy="50" r="42" stroke="#d4af37" stroke-width="1" fill="none" opacity="0.4"/>
  <!-- 12 Sterne im Kreis (EU-Style) -->
  <g fill="#d4af37">
    <polygon points="50,10 51.5,14.5 56,14.5 52.5,17 53.8,21.5 50,19 46.2,21.5 47.5,17 44,14.5 48.5,14.5" transform="scale(0.6) translate(33.3,8)"/>
    <polygon points="50,10 51.5,14.5 56,14.5 52.5,17 53.8,21.5 50,19 46.2,21.5 47.5,17 44,14.5 48.5,14.5" transform="rotate(30,50,50) scale(0.6) translate(33.3,8)"/>
    <polygon points="50,10 51.5,14.5 56,14.5 52.5,17 53.8,21.5 50,19 46.2,21.5 47.5,17 44,14.5 48.5,14.5" transform="rotate(60,50,50) scale(0.6) translate(33.3,8)"/>
    <polygon points="50,10 51.5,14.5 56,14.5 52.5,17 53.8,21.5 50,19 46.2,21.5 47.5,17 44,14.5 48.5,14.5" transform="rotate(90,50,50) scale(0.6) translate(33.3,8)"/>
    <polygon points="50,10 51.5,14.5 56,14.5 52.5,17 53.8,21.5 50,19 46.2,21.5 47.5,17 44,14.5 48.5,14.5" transform="rotate(120,50,50) scale(0.6) translate(33.3,8)"/>
    <polygon points="50,10 51.5,14.5 56,14.5 52.5,17 53.8,21.5 50,19 46.2,21.5 47.5,17 44,14.5 48.5,14.5" transform="rotate(150,50,50) scale(0.6) translate(33.3,8)"/>
    <polygon points="50,10 51.5,14.5 56,14.5 52.5,17 53.8,21.5 50,19 46.2,21.5 47.5,17 44,14.5 48.5,14.5" transform="rotate(180,50,50) scale(0.6) translate(33.3,8)"/>
    <polygon points="50,10 51.5,14.5 56,14.5 52.5,17 53.8,21.5 50,19 46.2,21.5 47.5,17 44,14.5 48.5,14.5" transform="rotate(210,50,50) scale(0.6) translate(33.3,8)"/>
    <polygon points="50,10 51.5,14.5 56,14.5 52.5,17 53.8,21.5 50,19 46.2,21.5 47.5,17 44,14.5 48.5,14.5" transform="rotate(240,50,50) scale(0.6) translate(33.3,8)"/>
    <polygon points="50,10 51.5,14.5 56,14.5 52.5,17 53.8,21.5 50,19 46.2,21.5 47.5,17 44,14.5 48.5,14.5" transform="rotate(270,50,50) scale(0.6) translate(33.3,8)"/>
    <polygon points="50,10 51.5,14.5 56,14.5 52.5,17 53.8,21.5 50,19 46.2,21.5 47.5,17 44,14.5 48.5,14.5" transform="rotate(300,50,50) scale(0.6) translate(33.3,8)"/>
    <polygon points="50,10 51.5,14.5 56,14.5 52.5,17 53.8,21.5 50,19 46.2,21.5 47.5,17 44,14.5 48.5,14.5" transform="rotate(330,50,50) scale(0.6) translate(33.3,8)"/>
  </g>
  <!-- Text -->
  <text x="50" y="46" text-anchor="middle" font-size="13" font-weight="bold" fill="#d4af37" font-family="Arial, sans-serif" letter-spacing="1">EUROPA</text>
  <text x="50" y="62" text-anchor="middle" font-size="10" fill="#999" font-family="Arial, sans-serif" letter-spacing="2">ANDERE</text>
</svg>
